<svg version="1.1" id="Layer_1" xmlns="http://www.w3.org/2000/svg" xmlns:xlink="http://www.w3.org/1999/xlink" x="0px" y="0px"
	 width="100%" viewBox="0 0 1080 1080" enable-background="new 0 0 1080 1080" xml:space="preserve">
<path fill="#F1EFE7" opacity="1.000000" stroke="none" 
	d="
M608.000000,1081.000000 
	C405.356659,1081.000000 203.213318,1081.000000 1.034993,1081.000000 
	C1.034993,721.064880 1.034993,361.129730 1.034993,1.097306 
	C360.893585,1.097306 720.787170,1.097306 1080.840332,1.097306 
	C1080.840332,360.999939 1080.840332,720.999939 1080.840332,1081.000000 
	C923.462646,1081.000000 765.981323,1081.000000 608.000000,1081.000000 
M707.046631,599.123474 
	C705.422546,599.129578 703.798523,599.135742 701.511780,598.989075 
	C700.697449,598.908203 699.883118,598.827393 698.428528,598.682983 
	C700.089722,597.952454 701.058105,597.526550 702.759033,597.042969 
	C704.175781,596.695496 705.592590,596.348022 707.724426,596.002930 
	C709.486206,595.456360 711.247986,594.909790 713.791260,594.346130 
	C714.271484,594.254089 714.850708,594.301636 715.213684,594.044189 
	C716.377991,593.218567 717.462219,592.280212 718.577393,591.385315 
	C717.356018,590.473572 716.184814,588.902466 714.901489,588.804871 
	C712.986511,588.659180 710.992432,589.551880 708.219666,590.015869 
	C706.782227,590.469788 705.344788,590.923706 703.193237,591.166260 
	C701.511536,591.478088 699.829895,591.789917 697.361084,592.143982 
	C695.442261,593.497314 690.130249,592.418884 692.310913,596.514648 
	C693.913025,599.523743 693.653992,602.154846 693.374817,605.537781 
	C693.293884,606.860840 693.150452,608.183594 693.142517,609.507080 
	C693.101257,616.371582 693.590942,616.853943 700.495056,616.866272 
	C705.320190,616.874878 710.156799,616.660522 714.967224,616.926636 
	C719.754639,617.191406 721.780823,615.286133 721.284790,610.512634 
	C721.103821,608.770813 721.255615,606.994507 721.255615,605.196960 
	C719.353638,605.106873 718.193848,605.051941 717.163574,604.278748 
	C717.809021,603.132141 718.310730,601.861328 719.154297,600.886169 
	C719.652405,600.310364 720.691711,600.202698 721.487610,599.884583 
	C721.648132,600.705872 721.808655,601.527161 721.969238,602.348389 
	C720.602112,597.924927 716.990234,599.323425 713.219421,598.941223 
	C711.432556,598.997314 709.645752,599.053345 707.046631,599.123474 
M696.947510,548.148254 
	C697.833496,553.100220 696.582458,555.527405 691.868774,555.619019 
	C688.196106,555.690247 684.331055,554.663269 680.849609,553.340027 
	C677.241882,551.968811 673.993286,549.652832 670.495850,547.698792 
	C667.507385,552.645203 664.672668,557.337097 661.838013,562.028992 
	C661.480469,561.901123 661.122986,561.773254 660.765503,561.645447 
	C660.765503,540.270325 660.765503,518.895203 660.765503,497.632233 
	C651.883850,497.632233 643.495605,497.632233 635.197449,497.632233 
	C635.197449,522.924927 635.197449,547.840576 635.197449,572.777832 
	C643.935669,572.777832 652.376892,572.777832 660.979919,572.777832 
	C660.979919,571.563477 660.943176,570.574585 660.989929,569.589661 
	C661.038757,568.560242 661.168030,567.534607 661.267273,566.451050 
	C677.234070,576.771790 693.827148,577.610107 710.858032,571.631226 
	C719.420227,568.625305 724.105042,561.912170 724.998657,552.759827 
	C725.920776,543.315674 722.997437,535.598450 714.498291,530.756042 
	C710.773865,528.634033 706.728394,527.049194 702.753479,525.401855 
	C699.693542,524.133728 696.336426,523.476196 693.467346,521.899597 
	C692.052246,521.121887 690.546631,518.765015 690.729614,517.333252 
	C690.899231,516.005981 693.332397,513.889099 694.647888,513.974976 
	C700.203552,514.337158 705.860779,514.877747 711.183044,516.396729 
	C714.135681,517.239441 716.124084,518.091370 717.559509,516.406311 
	C721.213074,516.820801 724.866577,517.235229 728.973083,517.701111 
	C728.973083,528.628235 728.549072,539.453247 729.094910,550.229126 
	C729.618225,560.562012 733.257507,569.720337 744.061707,573.430298 
	C754.119568,576.883972 763.993347,575.504883 773.680176,570.526062 
	C772.879333,567.872253 772.161865,565.494751 771.029846,561.743713 
	C789.041016,578.214722 807.039490,580.318420 825.972778,564.929871 
	C825.972778,567.937439 825.972778,570.247864 825.972778,572.732056 
	C834.521057,572.732056 842.922119,572.732056 851.426147,572.732056 
	C851.426147,547.550171 851.426147,522.642273 851.426147,497.544312 
	C842.753906,497.544312 834.369019,497.544312 825.911072,497.544312 
	C825.621765,499.662140 825.370361,501.502808 825.026123,504.022644 
	C816.470764,496.659607 806.997314,494.341156 796.666748,495.292847 
	C786.354553,496.242828 778.053223,501.213837 770.749329,510.247650 
	C770.749329,505.007904 770.749329,501.394409 770.749329,497.260498 
	C765.399353,497.260498 760.329895,497.260498 754.847656,497.260498 
	C754.847656,487.658264 754.847656,478.575500 754.847656,469.367218 
	C746.003479,469.367218 737.600952,469.367218 728.851685,469.367218 
	C728.851685,474.105164 728.851685,478.575928 728.851685,483.046692 
	C728.851685,487.666718 728.851685,492.286743 728.851685,497.844360 
	C722.106995,497.273163 715.910400,497.082062 709.824036,496.161774 
	C698.036194,494.379395 686.633484,494.484863 675.876221,500.545227 
	C663.598572,507.462219 661.026184,527.475281 674.059448,535.797913 
	C678.099915,538.378113 682.440125,540.500488 686.702942,542.717407 
	C689.922485,544.391724 693.237183,545.883057 696.947510,548.148254 
M644.850769,450.981750 
	C635.523071,451.065918 626.192078,451.319336 616.869385,451.142303 
	C613.612671,451.080475 612.224304,452.250153 611.148254,455.153473 
	C606.185791,468.543060 601.033569,481.862488 595.918091,495.195099 
	C591.490662,506.734283 587.021362,518.257324 582.167419,530.831848 
	C581.116394,528.368896 580.450989,526.936951 579.885803,525.466431 
	C570.890564,502.061401 561.952209,478.634216 552.826843,455.280060 
	C552.193115,453.658203 550.232117,451.466858 548.818420,451.414124 
	C539.518982,451.067383 530.200256,451.235229 520.090149,451.235229 
	C537.239746,492.137024 554.169434,532.514343 571.146667,573.005188 
	C576.981934,573.005188 582.644958,572.804321 588.284729,573.079590 
	C591.739441,573.248108 593.511597,572.247314 594.881226,568.852844 
	C601.777893,551.760681 608.981628,534.792114 616.107544,517.792725 
	C622.164978,503.342041 628.263245,488.908447 634.399597,474.333923 
	C641.288147,480.461609 644.086365,481.817871 648.987976,481.543488 
	C657.529846,481.065430 664.383789,473.503479 663.783691,465.196472 
	C663.174316,456.760345 655.383606,449.145264 644.850769,450.981750 
M401.428436,499.854706 
	C400.893982,498.993286 400.374298,497.392517 399.822845,497.381500 
	C391.737518,497.220001 383.647919,497.270416 375.533325,497.270416 
	C375.533325,522.878784 375.533325,547.778442 375.533325,572.770874 
	C384.230835,572.770874 392.644287,572.770874 401.431213,572.770874 
	C401.431213,568.901794 401.429840,565.262573 401.431519,561.623352 
	C401.436584,550.798645 401.223633,539.968201 401.511047,529.150940 
	C401.791260,518.606384 409.957581,513.167114 419.266235,517.137512 
	C425.346710,519.730957 426.811493,525.191956 426.857147,531.126709 
	C426.953186,543.616028 426.878876,556.106628 426.899292,568.596680 
	C426.901611,570.016663 427.062531,571.436340 427.139252,572.682434 
	C435.970184,572.682434 444.373474,572.682434 452.966125,572.682434 
	C452.966125,557.889404 452.901489,543.418091 452.992004,528.947815 
	C453.040985,521.117310 457.462433,516.355652 464.593018,516.076599 
	C472.224792,515.777893 477.543365,520.526489 478.045898,528.371155 
	C478.311584,532.519043 478.188934,536.693481 478.195099,540.856018 
	C478.210785,551.458862 478.200287,562.061768 478.200287,572.784607 
	C487.162109,572.784607 495.575745,572.784607 504.213470,572.784607 
	C504.213470,555.267517 504.461975,537.964966 504.130463,520.673462 
	C503.889282,508.093567 497.474335,500.338898 485.389923,496.648468 
	C473.879822,493.133362 463.693176,495.541779 454.933289,503.714569 
	C453.270721,505.265686 452.107178,507.351654 450.270844,509.774872 
	C444.521393,499.583130 436.171387,496.412567 426.780792,495.249573 
	C417.022339,494.041046 409.181061,498.470825 401.718903,505.011230 
	C401.585022,503.015747 401.508118,501.869049 401.428436,499.854706 
M303.473877,451.233856 
	C284.061462,451.233856 264.649078,451.233856 245.300766,451.233856 
	C245.300766,492.198486 245.300766,532.436462 245.300766,572.664795 
	C254.608582,572.664795 263.656097,572.664795 273.035431,572.664795 
	C273.035431,556.403076 273.035431,540.479004 273.035431,524.002441 
	C286.236664,524.002441 299.108459,524.002441 311.857483,524.002441 
	C311.857483,515.690674 311.857483,507.940704 311.857483,499.822235 
	C298.834869,499.822235 286.084229,499.822235 273.271210,499.822235 
	C273.271210,491.577820 273.271210,483.714630 273.271210,475.748901 
	C286.293884,475.748901 298.951904,475.628693 311.603638,475.856628 
	C313.959015,475.899048 316.646454,476.846375 318.563171,478.230896 
	C324.047333,482.192413 331.253448,482.700836 336.765503,478.967133 
	C342.620483,475.001160 345.080261,468.138702 343.034851,461.476471 
	C341.105133,455.191193 335.010406,450.203369 328.426178,450.866943 
	C324.082184,451.304688 319.918518,453.531921 315.676697,454.957062 
	C315.519775,454.307312 315.151978,452.784668 314.777405,451.233856 
	C311.116943,451.233856 307.788269,451.233856 303.473877,451.233856 
M371.799713,502.500092 
	C371.799713,483.766724 371.799713,465.033356 371.799713,446.213806 
	C362.760223,446.213806 354.458252,446.213806 345.982819,446.213806 
	C345.982819,488.498749 345.982819,530.654175 345.982819,572.671143 
	C354.729767,572.671143 363.134735,572.671143 371.799713,572.671143 
	C371.799713,549.392029 371.799713,526.446045 371.799713,502.500092 
M321.567200,573.002930 
	C327.985809,573.002930 334.404419,573.002930 340.707275,573.002930 
	C340.707275,547.451294 340.707275,522.557556 340.707275,497.542908 
	C332.039185,497.542908 323.643097,497.542908 315.078217,497.542908 
	C315.078217,522.728333 315.078217,547.630493 315.078217,573.002930 
	C317.025208,573.002930 318.806458,573.002930 321.567200,573.002930 
M939.886169,549.845337 
	C934.070129,542.031189 926.475525,539.488647 918.700928,542.752808 
	C911.690063,545.696350 907.388733,553.014893 908.456848,560.355042 
	C909.484558,567.417419 913.420837,572.344666 920.192993,574.406982 
	C926.909607,576.452637 933.101379,574.933777 937.829712,569.514587 
	C942.809509,563.807251 943.427368,557.367981 939.886169,549.845337 
M523.678772,600.162231 
	C527.553345,599.266785 528.198303,601.561096 528.292542,604.655212 
	C528.377930,607.458984 528.725708,610.254761 528.957764,613.054016 
	C529.714600,613.001770 530.471375,612.949463 531.228210,612.897217 
	C531.228210,610.516602 531.240295,608.135986 531.225037,605.755493 
	C531.206848,602.918701 531.506409,600.100464 535.163757,600.059753 
	C538.981018,600.017212 538.271362,603.207642 538.485413,605.557556 
	C538.712891,608.054565 538.798767,610.564453 538.946472,613.068726 
	C539.608704,613.027588 540.270874,612.986450 540.933105,612.945312 
	C540.933105,608.753235 541.417847,604.484741 540.773193,600.394287 
	C540.294189,597.355103 537.421387,596.446899 534.461792,597.501526 
	C533.096313,597.988037 531.893066,598.929932 530.616272,599.665344 
	C530.581238,599.216431 530.546204,598.767517 530.511169,598.318604 
	C526.636963,598.318604 522.762695,598.318604 519.045044,598.318604 
	C519.045044,603.054871 519.045044,608.003540 519.045044,612.952148 
	C519.597839,612.964661 520.150635,612.977112 520.703369,612.989563 
	C520.859558,611.009583 520.857544,609.000549 521.213928,607.057190 
	C521.612671,604.882874 522.336243,602.768066 523.678772,600.162231 
M565.349243,609.903870 
	C568.819641,616.026917 574.318481,611.339111 578.690125,612.628296 
	C578.690125,607.416992 578.690125,602.429993 578.690125,597.257141 
	C574.553406,597.678711 570.369324,597.072632 567.352722,598.670532 
	C563.471619,600.726379 563.296814,605.119934 565.349243,609.903870 
M482.163940,600.923767 
	C480.160767,606.831665 481.738525,611.437195 486.266541,612.899170 
	C490.302826,614.202454 493.483643,612.815002 494.611359,608.878113 
	C490.534271,610.333984 486.256653,612.483215 483.934235,606.007812 
	C487.107727,606.007812 489.870331,605.938293 492.627960,606.025940 
	C495.883606,606.129395 496.230377,604.586243 495.229767,601.957214 
	C493.094269,596.346375 487.511047,595.587646 482.163940,600.923767 
M452.006134,597.169922 
	C450.037567,597.575378 448.069000,597.980896 445.205536,598.570679 
	C445.856995,602.966614 443.952637,608.131592 447.254700,612.915710 
	C448.173950,610.342224 448.215332,607.793701 448.163269,605.247192 
	C448.100525,602.178406 449.160431,599.526550 452.513214,600.157959 
	C453.870361,600.413452 455.264008,603.246582 455.666962,605.116699 
	C456.206726,607.621521 455.800629,610.330200 455.800629,612.951355 
	C456.640442,612.974426 457.480255,612.997498 458.320068,613.020569 
	C458.452820,609.631165 458.803589,606.232361 458.658600,602.854858 
	C458.505737,599.294983 456.848816,596.816223 452.006134,597.169922 
M664.650574,610.209717 
	C661.518066,608.792969 660.659058,606.337219 661.745117,603.249084 
	C663.565430,598.073242 667.821228,600.501770 671.665771,600.800354 
	C670.458862,596.640625 667.483948,596.758362 664.860596,597.163574 
	C660.932556,597.770142 658.773315,600.507019 658.452759,604.399353 
	C658.140503,608.191589 659.440918,611.552551 663.251831,612.802551 
	C666.297668,613.801758 669.606995,613.831238 672.615234,609.558044 
	C669.426941,609.979004 667.438599,610.241516 664.650574,610.209717 
M393.115631,600.028625 
	C394.283630,600.252075 395.451660,600.475525 396.619690,600.699036 
	C394.499512,596.706665 391.484100,596.317810 388.229492,597.763000 
	C384.314667,599.501465 383.282318,602.877869 383.864685,606.824097 
	C384.407410,610.501526 386.479004,612.947937 390.334747,613.154175 
	C392.907623,613.291809 395.921478,613.689453 397.062439,609.526001 
	C392.615997,610.146729 387.569244,612.498657 386.766571,605.752441 
	C386.323517,602.028748 388.257935,599.766968 393.115631,600.028625 
M610.051819,611.439941 
	C605.491455,608.482422 605.671448,602.338684 610.107422,598.943481 
	C608.507507,597.260498 606.899048,595.568604 605.301697,593.888367 
	C603.962097,595.608643 602.618225,597.334473 601.806519,598.376831 
	C602.610596,600.727722 603.427490,602.645874 603.892151,604.645813 
	C604.184998,605.906250 603.907593,607.290833 603.961060,608.616699 
	C604.123047,612.631226 605.909485,614.088196 610.051819,611.439941 
M419.057526,601.858337 
	C419.057465,611.193237 419.057465,611.193237 421.389252,612.938416 
	C421.389252,607.621582 421.389252,602.494507 421.389252,597.367493 
	C420.914581,597.317139 420.439941,597.266846 419.965271,597.216553 
	C419.662781,598.468506 419.360291,599.720459 419.057526,601.858337 
M744.915894,605.987000 
	C744.784119,601.417175 747.042175,596.679749 743.920959,592.301941 
	C742.884644,597.087402 741.918762,601.854858 744.915894,605.987000 
M632.941040,599.190918 
	C632.941040,603.784607 632.941040,608.378235 632.941040,612.971924 
	C635.843506,610.868286 636.794983,599.864929 635.361267,598.119263 
	C635.089600,597.788452 633.855469,598.248108 632.941040,599.190918 
z"/>
<path fill="#030303" opacity="1.000000" stroke="none" 
	d="
M696.728516,547.802002 
	C693.237183,545.883057 689.922485,544.391724 686.702942,542.717407 
	C682.440125,540.500488 678.099915,538.378113 674.059448,535.797913 
	C661.026184,527.475281 663.598572,507.462219 675.876221,500.545227 
	C686.633484,494.484863 698.036194,494.379395 709.824036,496.161774 
	C715.910400,497.082062 722.106995,497.273163 728.851685,497.844360 
	C728.851685,492.286743 728.851685,487.666718 728.851685,483.046692 
	C728.851685,478.575928 728.851685,474.105164 728.851685,469.367218 
	C737.600952,469.367218 746.003479,469.367218 754.847656,469.367218 
	C754.847656,478.575500 754.847656,487.658264 754.847656,497.260498 
	C760.329895,497.260498 765.399353,497.260498 770.749329,497.260498 
	C770.749329,501.394409 770.749329,505.007904 770.749329,510.247650 
	C778.053223,501.213837 786.354553,496.242828 796.666748,495.292847 
	C806.997314,494.341156 816.470764,496.659607 825.026123,504.022644 
	C825.370361,501.502808 825.621765,499.662140 825.911072,497.544312 
	C834.369019,497.544312 842.753906,497.544312 851.426147,497.544312 
	C851.426147,522.642273 851.426147,547.550171 851.426147,572.732056 
	C842.922119,572.732056 834.521057,572.732056 825.972778,572.732056 
	C825.972778,570.247864 825.972778,567.937439 825.972778,564.929871 
	C807.039490,580.318420 789.041016,578.214722 771.029846,561.743713 
	C772.161865,565.494751 772.879333,567.872253 773.680176,570.526062 
	C763.993347,575.504883 754.119568,576.883972 744.061707,573.430298 
	C733.257507,569.720337 729.618225,560.562012 729.094910,550.229126 
	C728.549072,539.453247 728.973083,528.628235 728.973083,517.701111 
	C724.866577,517.235229 721.213074,516.820801 717.559509,516.406311 
	C716.124084,518.091370 714.135681,517.239441 711.183044,516.396729 
	C705.860779,514.877747 700.203552,514.337158 694.647888,513.974976 
	C693.332397,513.889099 690.899231,516.005981 690.729614,517.333252 
	C690.546631,518.765015 692.052246,521.121887 693.467346,521.899597 
	C696.336426,523.476196 699.693542,524.133728 702.753479,525.401855 
	C706.728394,527.049194 710.773865,528.634033 714.498291,530.756042 
	C722.997437,535.598450 725.920776,543.315674 724.998657,552.759827 
	C724.105042,561.912170 719.420227,568.625305 710.858032,571.631226 
	C693.827148,577.610107 677.234070,576.771790 661.267273,566.451050 
	C661.168030,567.534607 661.038757,568.560242 660.989929,569.589661 
	C660.943176,570.574585 660.979919,571.563477 660.979919,572.777832 
	C652.376892,572.777832 643.935669,572.777832 635.197449,572.777832 
	C635.197449,547.840576 635.197449,522.924927 635.197449,497.632233 
	C643.495605,497.632233 651.883850,497.632233 660.765503,497.632233 
	C660.765503,518.895203 660.765503,540.270325 660.765503,561.645447 
	C661.122986,561.773254 661.480469,561.901123 661.838013,562.028992 
	C664.672668,557.337097 667.507385,552.645203 670.495850,547.698792 
	C673.993286,549.652832 677.241882,551.968811 680.849609,553.340027 
	C684.331055,554.663269 688.196106,555.690247 691.868774,555.619019 
	C696.582458,555.527405 697.833496,553.100220 696.728516,547.802002 
M823.362915,525.338196 
	C822.279907,524.089722 821.320007,522.702087 820.092651,521.616882 
	C814.626953,516.784607 806.110840,516.017700 799.647278,519.668457 
	C792.891663,523.484192 789.595398,531.151062 791.199158,539.318542 
	C792.635559,546.633728 798.291260,551.941772 805.887268,552.814331 
	C812.591675,553.584534 818.519104,551.786316 822.599976,546.163147 
	C827.224426,539.790833 827.176636,532.917786 823.362915,525.338196 
M754.946350,542.198975 
	C755.505554,551.253479 758.561584,553.607788 765.436584,549.934937 
	C761.918579,539.095276 762.482178,528.197144 766.482483,517.501465 
	C762.299255,517.501465 758.719727,517.501465 754.930603,517.501465 
	C754.930603,525.644775 754.930603,533.453430 754.946350,542.198975 
z"/>
<path fill="#030303" opacity="1.000000" stroke="none" 
	d="
M645.281555,450.929901 
	C655.383606,449.145264 663.174316,456.760345 663.783691,465.196472 
	C664.383789,473.503479 657.529846,481.065430 648.987976,481.543488 
	C644.086365,481.817871 641.288147,480.461609 634.399597,474.333923 
	C628.263245,488.908447 622.164978,503.342041 616.107544,517.792725 
	C608.981628,534.792114 601.777893,551.760681 594.881226,568.852844 
	C593.511597,572.247314 591.739441,573.248108 588.284729,573.079590 
	C582.644958,572.804321 576.981934,573.005188 571.146667,573.005188 
	C554.169434,532.514343 537.239746,492.137024 520.090149,451.235229 
	C530.200256,451.235229 539.518982,451.067383 548.818420,451.414124 
	C550.232117,451.466858 552.193115,453.658203 552.826843,455.280060 
	C561.952209,478.634216 570.890564,502.061401 579.885803,525.466431 
	C580.450989,526.936951 581.116394,528.368896 582.167419,530.831848 
	C587.021362,518.257324 591.490662,506.734283 595.918091,495.195099 
	C601.033569,481.862488 606.185791,468.543060 611.148254,455.153473 
	C612.224304,452.250153 613.612671,451.080475 616.869385,451.142303 
	C626.192078,451.319336 635.523071,451.065918 645.281555,450.929901 
z"/>
<path fill="#030303" opacity="1.000000" stroke="none" 
	d="
M401.429810,500.288513 
	C401.508118,501.869049 401.585022,503.015747 401.718903,505.011230 
	C409.181061,498.470825 417.022339,494.041046 426.780792,495.249573 
	C436.171387,496.412567 444.521393,499.583130 450.270844,509.774872 
	C452.107178,507.351654 453.270721,505.265686 454.933289,503.714569 
	C463.693176,495.541779 473.879822,493.133362 485.389923,496.648468 
	C497.474335,500.338898 503.889282,508.093567 504.130463,520.673462 
	C504.461975,537.964966 504.213470,555.267517 504.213470,572.784607 
	C495.575745,572.784607 487.162109,572.784607 478.200287,572.784607 
	C478.200287,562.061768 478.210785,551.458862 478.195099,540.856018 
	C478.188934,536.693481 478.311584,532.519043 478.045898,528.371155 
	C477.543365,520.526489 472.224792,515.777893 464.593018,516.076599 
	C457.462433,516.355652 453.040985,521.117310 452.992004,528.947815 
	C452.901489,543.418091 452.966125,557.889404 452.966125,572.682434 
	C444.373474,572.682434 435.970184,572.682434 427.139252,572.682434 
	C427.062531,571.436340 426.901611,570.016663 426.899292,568.596680 
	C426.878876,556.106628 426.953186,543.616028 426.857147,531.126709 
	C426.811493,525.191956 425.346710,519.730957 419.266235,517.137512 
	C409.957581,513.167114 401.791260,518.606384 401.511047,529.150940 
	C401.223633,539.968201 401.436584,550.798645 401.431519,561.623352 
	C401.429840,565.262573 401.431213,568.901794 401.431213,572.770874 
	C392.644287,572.770874 384.230835,572.770874 375.533325,572.770874 
	C375.533325,547.778442 375.533325,522.878784 375.533325,497.270416 
	C383.647919,497.270416 391.737518,497.220001 399.822845,497.381500 
	C400.374298,497.392517 400.893982,498.993286 401.429810,500.288513 
z"/>
<path fill="#030303" opacity="1.000000" stroke="none" 
	d="
M303.966736,451.233856 
	C307.788269,451.233856 311.116943,451.233856 314.777405,451.233856 
	C315.151978,452.784668 315.519775,454.307312 315.676697,454.957062 
	C319.918518,453.531921 324.082184,451.304688 328.426178,450.866943 
	C335.010406,450.203369 341.105133,455.191193 343.034851,461.476471 
	C345.080261,468.138702 342.620483,475.001160 336.765503,478.967133 
	C331.253448,482.700836 324.047333,482.192413 318.563171,478.230896 
	C316.646454,476.846375 313.959015,475.899048 311.603638,475.856628 
	C298.951904,475.628693 286.293884,475.748901 273.271210,475.748901 
	C273.271210,483.714630 273.271210,491.577820 273.271210,499.822235 
	C286.084229,499.822235 298.834869,499.822235 311.857483,499.822235 
	C311.857483,507.940704 311.857483,515.690674 311.857483,524.002441 
	C299.108459,524.002441 286.236664,524.002441 273.035431,524.002441 
	C273.035431,540.479004 273.035431,556.403076 273.035431,572.664795 
	C263.656097,572.664795 254.608582,572.664795 245.300766,572.664795 
	C245.300766,532.436462 245.300766,492.198486 245.300766,451.233856 
	C264.649078,451.233856 284.061462,451.233856 303.966736,451.233856 
z"/>
<path fill="#030303" opacity="1.000000" stroke="none" 
	d="
M371.799713,503.000122 
	C371.799713,526.446045 371.799713,549.392029 371.799713,572.671143 
	C363.134735,572.671143 354.729767,572.671143 345.982819,572.671143 
	C345.982819,530.654175 345.982819,488.498749 345.982819,446.213806 
	C354.458252,446.213806 362.760223,446.213806 371.799713,446.213806 
	C371.799713,465.033356 371.799713,483.766724 371.799713,503.000122 
z"/>
<path fill="#020201" opacity="1.000000" stroke="none" 
	d="
M321.077454,573.002930 
	C318.806458,573.002930 317.025208,573.002930 315.078217,573.002930 
	C315.078217,547.630493 315.078217,522.728333 315.078217,497.542908 
	C323.643097,497.542908 332.039185,497.542908 340.707275,497.542908 
	C340.707275,522.557556 340.707275,547.451294 340.707275,573.002930 
	C334.404419,573.002930 327.985809,573.002930 321.077454,573.002930 
z"/>
<path fill="#030303" opacity="1.000000" stroke="none" 
	d="
M940.041748,550.193481 
	C943.427368,557.367981 942.809509,563.807251 937.829712,569.514587 
	C933.101379,574.933777 926.909607,576.452637 920.192993,574.406982 
	C913.420837,572.344666 909.484558,567.417419 908.456848,560.355042 
	C907.388733,553.014893 911.690063,545.696350 918.700928,542.752808 
	C926.475525,539.488647 934.070129,542.031189 940.041748,550.193481 
z"/>
<path fill="#46762C" opacity="1.000000" stroke="none" 
	d="
M717.034058,604.996948 
	C718.193848,605.051941 719.353638,605.106873 721.255615,605.196960 
	C721.255615,606.994507 721.103821,608.770813 721.284790,610.512634 
	C721.780823,615.286133 719.754639,617.191406 714.967224,616.926636 
	C710.156799,616.660522 705.320190,616.874878 700.495056,616.866272 
	C693.590942,616.853943 693.101257,616.371582 693.142517,609.507080 
	C693.150452,608.183594 693.293884,606.860840 694.076233,605.345459 
	C696.347961,605.078186 697.918274,605.003235 699.961426,604.956848 
	C701.994385,604.981689 703.554504,604.978027 705.530273,605.039612 
	C707.625305,605.071533 709.304688,605.038086 711.415771,605.016724 
	C713.576355,605.018188 715.305237,605.007568 717.034058,604.996948 
z"/>
<path fill="#1A1A19" opacity="1.000000" stroke="none" 
	d="
M523.298584,600.394775 
	C522.336243,602.768066 521.612671,604.882874 521.213928,607.057190 
	C520.857544,609.000549 520.859558,611.009583 520.703369,612.989563 
	C520.150635,612.977112 519.597839,612.964661 519.045044,612.952148 
	C519.045044,608.003540 519.045044,603.054871 519.045044,598.318604 
	C522.762695,598.318604 526.636963,598.318604 530.511169,598.318604 
	C530.546204,598.767517 530.581238,599.216431 530.616272,599.665344 
	C531.893066,598.929932 533.096313,597.988037 534.461792,597.501526 
	C537.421387,596.446899 540.294189,597.355103 540.773193,600.394287 
	C541.417847,604.484741 540.933105,608.753235 540.933105,612.945312 
	C540.270874,612.986450 539.608704,613.027588 538.946472,613.068726 
	C538.798767,610.564453 538.712891,608.054565 538.485413,605.557556 
	C538.271362,603.207642 538.981018,600.017212 535.163757,600.059753 
	C531.506409,600.100464 531.206848,602.918701 531.225037,605.755493 
	C531.240295,608.135986 531.228210,610.516602 531.228210,612.897217 
	C530.471375,612.949463 529.714600,613.001770 528.957764,613.054016 
	C528.725708,610.254761 528.377930,607.458984 528.292542,604.655212 
	C528.198303,601.561096 527.553345,599.266785 523.298584,600.394775 
z"/>
<path fill="#1A1A19" opacity="1.000000" stroke="none" 
	d="
M565.174805,609.562866 
	C563.296814,605.119934 563.471619,600.726379 567.352722,598.670532 
	C570.369324,597.072632 574.553406,597.678711 578.690125,597.257141 
	C578.690125,602.429993 578.690125,607.416992 578.690125,612.628296 
	C574.318481,611.339111 568.819641,616.026917 565.174805,609.562866 
M568.834412,609.540344 
	C571.314453,611.191528 574.045776,611.123352 575.185303,608.466431 
	C576.019897,606.520386 575.738770,603.595642 574.838745,601.614014 
	C574.379333,600.602661 570.292969,599.872375 569.875061,600.459534 
	C568.513428,602.372314 568.012207,604.930054 567.364807,607.290344 
	C567.241394,607.740295 567.960815,608.421387 568.834412,609.540344 
z"/>
<path fill="#1A1A19" opacity="1.000000" stroke="none" 
	d="
M482.392761,600.607544 
	C487.511047,595.587646 493.094269,596.346375 495.229767,601.957214 
	C496.230377,604.586243 495.883606,606.129395 492.627960,606.025940 
	C489.870331,605.938293 487.107727,606.007812 483.934235,606.007812 
	C486.256653,612.483215 490.534271,610.333984 494.611359,608.878113 
	C493.483643,612.815002 490.302826,614.202454 486.266541,612.899170 
	C481.738525,611.437195 480.160767,606.831665 482.392761,600.607544 
M485.055481,601.238098 
	C485.285004,602.021851 485.457214,603.459106 485.753174,603.485107 
	C487.947662,603.677490 490.166779,603.589294 492.988403,603.589294 
	C490.015137,599.409485 490.015137,599.409485 485.055481,601.238098 
z"/>
<path fill="#1A1A19" opacity="1.000000" stroke="none" 
	d="
M452.378418,597.111816 
	C456.848816,596.816223 458.505737,599.294983 458.658600,602.854858 
	C458.803589,606.232361 458.452820,609.631165 458.320068,613.020569 
	C457.480255,612.997498 456.640442,612.974426 455.800629,612.951355 
	C455.800629,610.330200 456.206726,607.621521 455.666962,605.116699 
	C455.264008,603.246582 453.870361,600.413452 452.513214,600.157959 
	C449.160431,599.526550 448.100525,602.178406 448.163269,605.247192 
	C448.215332,607.793701 448.173950,610.342224 447.254700,612.915710 
	C443.952637,608.131592 445.856995,602.966614 445.205536,598.570679 
	C448.069000,597.980896 450.037567,597.575378 452.378418,597.111816 
z"/>
<path fill="#1A1A19" opacity="1.000000" stroke="none" 
	d="
M665.050415,610.356934 
	C667.438599,610.241516 669.426941,609.979004 672.615234,609.558044 
	C669.606995,613.831238 666.297668,613.801758 663.251831,612.802551 
	C659.440918,611.552551 658.140503,608.191589 658.452759,604.399353 
	C658.773315,600.507019 660.932556,597.770142 664.860596,597.163574 
	C667.483948,596.758362 670.458862,596.640625 671.665771,600.800354 
	C667.821228,600.501770 663.565430,598.073242 661.745117,603.249084 
	C660.659058,606.337219 661.518066,608.792969 665.050415,610.356934 
z"/>
<path fill="#1A1A19" opacity="1.000000" stroke="none" 
	d="
M392.717590,599.983459 
	C388.257935,599.766968 386.323517,602.028748 386.766571,605.752441 
	C387.569244,612.498657 392.615997,610.146729 397.062439,609.526001 
	C395.921478,613.689453 392.907623,613.291809 390.334747,613.154175 
	C386.479004,612.947937 384.407410,610.501526 383.864685,606.824097 
	C383.282318,602.877869 384.314667,599.501465 388.229492,597.763000 
	C391.484100,596.317810 394.499512,596.706665 396.619690,600.699036 
	C395.451660,600.475525 394.283630,600.252075 392.717590,599.983459 
z"/>
<path fill="#1A1A19" opacity="1.000000" stroke="none" 
	d="
M609.900513,611.828735 
	C605.909485,614.088196 604.123047,612.631226 603.961060,608.616699 
	C603.907593,607.290833 604.184998,605.906250 603.892151,604.645813 
	C603.427490,602.645874 602.610596,600.727722 601.806519,598.376831 
	C602.618225,597.334473 603.962097,595.608643 605.301697,593.888367 
	C606.899048,595.568604 608.507507,597.260498 610.107422,598.943481 
	C605.671448,602.338684 605.491455,608.482422 609.900513,611.828735 
z"/>
<path fill="#BCC8C9" opacity="1.000000" stroke="none" 
	d="
M699.488586,604.928345 
	C697.918274,605.003235 696.347961,605.078186 694.388794,605.080688 
	C693.653992,602.154846 693.913025,599.523743 692.310913,596.514648 
	C690.130249,592.418884 695.442261,593.497314 697.766296,592.446289 
	C699.456543,594.199280 700.741577,595.649963 702.026550,597.100647 
	C701.058105,597.526550 700.089722,597.952454 698.428528,598.682983 
	C699.883118,598.827393 700.697449,598.908203 701.736572,599.399780 
	C701.137146,601.516418 700.312866,603.222351 699.488586,604.928345 
z"/>
<path fill="#3E4549" opacity="1.000000" stroke="none" 
	d="
M709.032043,590.002808 
	C710.992432,589.551880 712.986511,588.659180 714.901489,588.804871 
	C716.184814,588.902466 717.356018,590.473572 718.577393,591.385315 
	C717.462219,592.280212 716.377991,593.218567 715.213684,594.044189 
	C714.850708,594.301636 714.271484,594.254089 713.186279,594.100220 
	C711.398132,592.570496 710.215088,591.286682 709.032043,590.002808 
z"/>
<path fill="#1A1A19" opacity="1.000000" stroke="none" 
	d="
M419.057648,601.415405 
	C419.360291,599.720459 419.662781,598.468506 419.965271,597.216553 
	C420.439941,597.266846 420.914581,597.317139 421.389252,597.367493 
	C421.389252,602.494507 421.389252,607.621582 421.389252,612.938416 
	C419.057465,611.193237 419.057465,611.193237 419.057648,601.415405 
z"/>
<path fill="#1A1A19" opacity="1.000000" stroke="none" 
	d="
M744.633179,606.257629 
	C741.918762,601.854858 742.884644,597.087402 743.920959,592.301941 
	C747.042175,596.679749 744.784119,601.417175 744.633179,606.257629 
z"/>
<path fill="#1A1A19" opacity="1.000000" stroke="none" 
	d="
M633.003174,598.766968 
	C633.855469,598.248108 635.089600,597.788452 635.361267,598.119263 
	C636.794983,599.864929 635.843506,610.868286 632.941040,612.971924 
	C632.941040,608.378235 632.941040,603.784607 633.003174,598.766968 
z"/>
<path fill="#3E4549" opacity="1.000000" stroke="none" 
	d="
M717.098816,604.637817 
	C715.305237,605.007568 713.576355,605.018188 711.479553,604.683838 
	C712.108521,602.588501 713.105408,600.838135 714.102295,599.087708 
	C716.990234,599.323425 720.602112,597.924927 721.969238,602.348389 
	C721.808655,601.527161 721.648132,600.705872 721.487610,599.884583 
	C720.691711,600.202698 719.652405,600.310364 719.154297,600.886169 
	C718.310730,601.861328 717.809021,603.132141 717.098816,604.637817 
z"/>
<path fill="#3E4549" opacity="1.000000" stroke="none" 
	d="
M702.392822,597.071777 
	C700.741577,595.649963 699.456543,594.199280 698.159851,592.425171 
	C699.829895,591.789917 701.511536,591.478088 703.670166,591.564331 
	C705.101196,593.308411 706.055298,594.654541 707.009338,596.000610 
	C705.592590,596.348022 704.175781,596.695496 702.392822,597.071777 
z"/>
<path fill="#BCC8C9" opacity="1.000000" stroke="none" 
	d="
M713.660889,599.014465 
	C713.105408,600.838135 712.108521,602.588501 711.047791,604.671753 
	C709.304688,605.038086 707.625305,605.071533 705.629395,604.727173 
	C706.161499,602.602783 707.010193,600.856079 707.858887,599.109375 
	C709.645752,599.053345 711.432556,598.997314 713.660889,599.014465 
z"/>
<path fill="#3E4549" opacity="1.000000" stroke="none" 
	d="
M707.452759,599.116455 
	C707.010193,600.856079 706.161499,602.602783 705.213684,604.661865 
	C703.554504,604.978027 701.994385,604.981689 699.961426,604.956848 
	C700.312866,603.222351 701.137146,601.516418 702.067871,599.476196 
	C703.798523,599.135742 705.422546,599.129578 707.452759,599.116455 
z"/>
<path fill="#BCC8C9" opacity="1.000000" stroke="none" 
	d="
M707.366882,596.001770 
	C706.055298,594.654541 705.101196,593.308411 704.027283,591.669983 
	C705.344788,590.923706 706.782227,590.469788 708.625854,590.009399 
	C710.215088,591.286682 711.398132,592.570496 712.795532,594.108704 
	C711.247986,594.909790 709.486206,595.456360 707.366882,596.001770 
z"/>
<path fill="#EDEBE4" opacity="1.000000" stroke="none" 
	d="
M823.582764,525.647217 
	C827.176636,532.917786 827.224426,539.790833 822.599976,546.163147 
	C818.519104,551.786316 812.591675,553.584534 805.887268,552.814331 
	C798.291260,551.941772 792.635559,546.633728 791.199158,539.318542 
	C789.595398,531.151062 792.891663,523.484192 799.647278,519.668457 
	C806.110840,516.017700 814.626953,516.784607 820.092651,521.616882 
	C821.320007,522.702087 822.279907,524.089722 823.582764,525.647217 
z"/>
<path fill="#EDEBE4" opacity="1.000000" stroke="none" 
	d="
M754.938477,541.730469 
	C754.930603,533.453430 754.930603,525.644775 754.930603,517.501465 
	C758.719727,517.501465 762.299255,517.501465 766.482483,517.501465 
	C762.482178,528.197144 761.918579,539.095276 765.436584,549.934937 
	C758.561584,553.607788 755.505554,551.253479 754.938477,541.730469 
z"/>
<path fill="#EDEBE4" opacity="1.000000" stroke="none" 
	d="
M568.562866,609.268066 
	C567.960815,608.421387 567.241394,607.740295 567.364807,607.290344 
	C568.012207,604.930054 568.513428,602.372314 569.875061,600.459534 
	C570.292969,599.872375 574.379333,600.602661 574.838745,601.614014 
	C575.738770,603.595642 576.019897,606.520386 575.185303,608.466431 
	C574.045776,611.123352 571.314453,611.191528 568.562866,609.268066 
z"/>
<path fill="#BCC8C9" opacity="1.000000" stroke="none" 
	d="
M485.351318,600.978088 
	C490.015137,599.409485 490.015137,599.409485 492.988403,603.589294 
	C490.166779,603.589294 487.947662,603.677490 485.753174,603.485107 
	C485.457214,603.459106 485.285004,602.021851 485.351318,600.978088 
z"/>
</svg>